<svg id="Capa_1" data-name="Capa 1" xmlns="http://www.w3.org/2000/svg" viewBox="0 0 100 100"><defs><style>.cls-1{fill:#fff;}</style></defs><path class="cls-1" d="M12,37.63a26.21,26.21,0,0,0,1.22,4.9,103.27,103.27,0,0,0,11.67.11,25.23,25.23,0,0,0-.32-4.9A109.71,109.71,0,0,0,12,37.63Z"/><path class="cls-1" d="M14.74,48.61A20.93,20.93,0,0,0,15.86,53c3.25.11,6.5.06,9.75,0a17,17,0,0,0-.38-4.37C21.72,48.56,18.25,48.61,14.74,48.61Z"/><path class="cls-1" d="M24.12,31.77a47.5,47.5,0,0,0-.27-5.49c-4.9-.31-9.8-.1-14.76-.16a28.06,28.06,0,0,0,1.44,5.6C15.06,31.83,19.59,31.77,24.12,31.77Z"/><path class="cls-1" d="M44.2,31.67c.16-1.82.32-3.68.32-5.49-4.9-.11-9.8-.06-14.7-.06a21.83,21.83,0,0,0,.37,5.6C34.88,31.77,39.51,31.83,44.2,31.67Z"/><path class="cls-1" d="M4.67,20.42c21.1-.21,42.14-.05,63.25-.1a3,3,0,0,1,3,4.05C68.07,35.18,65.35,46,62.43,56.82c-.32,1.65-2,2.29-3.52,2.18H14.15a3.16,3.16,0,0,1-3.46-2.45C7.92,46,5.31,35.24,2.59,24.63,2,23,2.7,20.58,4.67,20.42ZM23.05,82.87A6.91,6.91,0,0,1,19.64,69.5a6.89,6.89,0,0,1,8.9,5A7,7,0,0,1,23.05,82.87ZM56.19,83A7,7,0,0,1,49.37,75a6.94,6.94,0,0,1,5.38-5.76c4-1.06,8.26,2.35,8.37,6.4A7,7,0,0,1,56.19,83Zm39.33-60.8c-4.85.53-9.81-.11-14.66.32-3.94,14-7.72,28-11.56,42.09a3.28,3.28,0,0,1-3.57,2.67c-18.76-.05-37.46,0-56.21-.05-3.63.1-3.79-5.76-.11-5.81,18.22-.16,36.45.1,54.67-.11,4.15-14.12,7.72-28.45,11.77-42.63a2.69,2.69,0,0,1,2.72-2c5.49-.05,11-.11,16.47,0C97.86,16.91,98.23,21.38,95.52,22.18Z"/><path class="cls-1" d="M59.81,42.59c1.18-1.23,1.12-3.36,1.55-5-3.89,0-7.78-.16-11.61.05a20.06,20.06,0,0,0-.22,5.07C52.94,42.7,56.4,42.8,59.81,42.59Z"/><path class="cls-1" d="M57.42,53a33,33,0,0,0,1.17-4.32c-3.2,0-6.4-.1-9.64,0a24.17,24.17,0,0,0-.11,4.43C51.72,53.09,54.59,53.19,57.42,53Z"/><path class="cls-1" d="M30.56,37.63a30.58,30.58,0,0,0,.27,4.9,62.45,62.45,0,0,0,12.68-.16,33,33,0,0,0,.27-4.58C39.41,37.26,34.93,37.58,30.56,37.63Z"/><path class="cls-1" d="M62.91,31.72a29.5,29.5,0,0,0,1.43-5.54c-4.63-.11-9.27-.11-13.85,0-.11,1.81-.69,3.83-.11,5.54C54.54,31.77,58.75,31.83,62.91,31.72Z"/><path class="cls-1" d="M31.31,48.61A15.59,15.59,0,0,0,31.68,53c3.68.06,7.35.06,11,.06.11-1.44.69-3.15.06-4.43C39,48.56,35.09,48.61,31.31,48.61Z"/></svg>