<?xml version="1.0" encoding="utf-8"?>
<!-- Generator: Adobe Illustrator 24.1.1, SVG Export Plug-In . SVG Version: 6.00 Build 0)  -->
<svg version="1.1" id="Capa_1" xmlns="http://www.w3.org/2000/svg" xmlns:xlink="http://www.w3.org/1999/xlink" x="0px" y="0px"
	 viewBox="0 0 1000 437.6" style="enable-background:new 0 0 1000 437.6;" xml:space="preserve">
<style type="text/css">
	.st0{fill:#200F21;}
	.st1{fill:#ECC405;}
	.st2{fill:#FFFFFF;}
	.st3{opacity:0.49;fill:#FFFFFF;enable-background:new    ;}
	.st4{fill:none;}
	.st5{font-family:'MyriadPro-Regular';}
	.st6{font-size:72px;}
	.st7{letter-spacing:8;}
</style>
<g>
	<g>
		<g>
			<g>
				<path class="st0" d="M150.4,48.9l140-10.9c4.7-0.4,9.5,4.4,10.1,10.5l4.7,51.1c0.6,6.2-3.3,11.6-8,11.9l-66.9,5.2
					c-5.1,0.4-8.6,6.1-8,11.9c0.6,6.5,5,11.3,10.1,10.9l40.1-3.1c4.7-0.4,9.5,4.4,10.1,10.5l4.6,50.3c0.6,6.2-3.3,11.6-8,11.9
					l-40.1,3.1c-5.1,0.4-8.6,6.1-8,11.9l0.1,1.5c0.6,6.2,5,10.9,10.1,10.5l66.9-5.2c4.7-0.4,9.5,4.7,10.1,10.5l4.7,51.1
					c0.6,6.5-3.3,11.9-8,12.3l-140,10.9c-5.1,0.4-9.5-4.4-10.1-10.9l-22.5-244C141.9,54.7,145.3,49.3,150.4,48.9z"/>
			</g>
			<g>
				<path class="st0" d="M416.4,251v32c0,6.9-4.7,12.4-9.9,12.4h-53.7c-5.5,0-9.9-5.5-9.9-12.4V39.8c0-6.9,4.3-12.3,9.9-12.3h73
					c62,0,96.3,19.6,96.3,104.3c0,84.3-34,106.8-96.3,106.8C420.8,238.6,416.4,244.1,416.4,251z M422.8,165.2
					c19,0,25.3-10.2,25.3-33.4c0-24.4-6.3-31.3-25.3-31.3h-6.3v64.7L422.8,165.2L422.8,165.2z"/>
			</g>
			<g>
				<path class="st0" d="M584.4,32.2l88.9,6.3c6.3,0.4,11.4,6.3,12.3,14l21.5,236.2c1.1,10.6-6,20.4-14.3,19.8l-46.8-3.3
					c-5.9-0.4-11-5.9-11.9-13.6l-0.3-5.5c-1-7.4-6-13.2-11.9-13.6l-26.8-1.9c-6.7-0.5-12.3,5-14.1,12.9l-1.1,3.6
					c-1.8,7.9-7.8,12.9-14.1,12.5l-44.5-3.1c-8.3-0.6-13.7-11.2-10.9-21.2l60-230.9C572.2,36.8,578.1,31.8,584.4,32.2z M603.7,180.8
					c-2.4,10,3.1,19.9,11.4,20.5s15.3-8.4,15-18.6l-2.9-74.6l-7.9-0.6L603.7,180.8z"/>
			</g>
			<g>
				<g>
					<path class="st1" d="M166.1,48.9l140-10.9c4.7-0.4,9.5,4.4,10.1,10.5l4.7,51.1c0.6,6.2-3.3,11.6-8,11.9l-66.9,5.2
						c-5.1,0.4-8.6,6.1-8,11.9c0.6,6.5,5,11.3,10.1,10.9l40.1-3.1c4.7-0.4,9.5,4.4,10.1,10.5l4.6,50.3c0.6,6.2-3.3,11.6-8,11.9
						l-40.1,3.1c-5.1,0.4-8.6,6.1-8,11.9l0.1,1.5c0.6,6.2,5,10.9,10.1,10.5l66.9-5.2c4.7-0.4,9.5,4.7,10.1,10.5l4.7,51.1
						c0.6,6.5-3.3,11.9-8,12.3l-140,10.9c-5.1,0.4-9.5-4.4-10.1-10.9l-22.5-244C157.5,54.7,161,49.3,166.1,48.9z"/>
				</g>
			</g>
			<g>
				<g>
					<path class="st1" d="M432.1,251v32c0,6.9-4.7,12.4-9.9,12.4h-53.7c-5.5,0-9.9-5.5-9.9-12.4V39.8c0-6.9,4.3-12.4,9.9-12.4h73
						c62,0,96.3,19.6,96.3,104.3c0,84.3-34,106.8-96.3,106.8C436.4,238.6,432.1,244.1,432.1,251z M438.4,165.2
						c19,0,25.3-10.2,25.3-33.4c0-24.4-6.3-31.3-25.3-31.3h-6.3v64.7L438.4,165.2L438.4,165.2z"/>
				</g>
			</g>
			<g>
				<g>
					<path class="st1" d="M600.1,32.2l89,6.3c6.3,0.4,11.3,6.3,12.3,14l21.5,236.2c1.1,10.6-6,20.4-14.3,19.8l-46.8-3.3
						c-5.9-0.4-11-5.9-11.9-13.6l-0.3-5.5c-1-7.4-6-13.2-11.9-13.6l-26.8-1.9c-6.7-0.5-12.3,5-14.1,12.9l-1.1,3.6
						c-1.8,7.9-7.8,12.9-14.1,12.5l-44.5-3.1c-8.3-0.6-13.7-11.2-10.9-21.2l60-230.8C587.8,36.8,593.8,31.8,600.1,32.2z
						 M619.4,180.8c-2.4,10,3.1,19.9,11.4,20.5s15.3-8.4,15-18.6l-2.9-74.6l-7.9-0.6L619.4,180.8z"/>
				</g>
			</g>
			<g>
				<g>
					<path class="st1" d="M763.3,248.3L825,250c8.6,0.2,14.8,8.4,14.4,18.1l-2.4,56.5c-0.4,9.7-7.3,17.5-15.9,17.3l-61.7-1.7
						c-8.6-0.2-14.8-8.4-14.4-18.1l2.4-56.5C747.7,255.9,754.7,248.1,763.3,248.3z M770.5,29.3l65.7,1.8c8.6,0.2,15.3,8.9,14.9,19
						l-12,161.9c-0.4,9.7-7.3,17.1-15.9,16.9l-56.6-1.5c-8.6-0.2-14.8-8-14.4-17.7L754,47.6C754.5,37.3,762,29.1,770.5,29.3z"/>
				</g>
			</g>
			<g>
				<g>
					<path class="st2" d="M770.3,250.2l56.7,1.6c7.9,0.2,13.6,8.3,13.3,17.8l-2.2,55.4c-0.4,9.5-6.7,17.2-14.6,17l-56.7-1.6
						c-7.9-0.2-13.6-8.3-13.3-17.8l2.2-55.4C756.1,257.7,762.4,250,770.3,250.2z M777,35.7l60.4,1.7c7.9,0.2,14.1,8.7,13.7,18.6
						l-11,158.6c-0.4,9.5-6.7,16.8-14.6,16.5l-52.1-1.5c-7.9-0.2-13.7-7.8-13.3-17.3l1.7-158.8C762.3,43.5,769.2,35.5,777,35.7z"/>
				</g>
			</g>
		</g>
		<path class="st3" d="M787,210.9v-5.7h-5.8v-2.1h5.8v-2.3h-5.8v-2.1h4.7l-6.2-10h5l3.1,6.2c0.7,1.3,1.1,2.3,1.6,3.4h0.1
			c0.5-1,0.9-2.2,1.6-3.5l3.3-6.1h4.9l-6.6,10h4.7v2.1h-5.9v2.3h5.9v2.1h-5.9v5.7L787,210.9L787,210.9z"/>
	</g>
	<path class="st2" d="M662.8,327.5c-11.5-0.9-23-1.5-34.5-2.3c-3.8-0.3-7.6-0.3-11.4-0.4c-8.3-0.3-16.5-0.5-24.7-0.8
		c-4.6-0.2-9.2-0.4-13.8-0.5c-1.3,0-2.7,0-4,0c-3,0-6,0.1-9,0.1c-13.6,0-27.2,0-40.8,0.1c-3.2,0-6.5,0.1-9.7,0.2
		c-8,0.1-16,0.3-24.1,0.4c-9,0.2-18.1,0.2-27.1,0.5c-14.6,0.5-29.3,1-43.9,1.4c-8.5,0.3-17,0.4-25.4,0.9
		c-14.6,0.8-29.2,1.5-43.8,2.3c-8,0.4-16,0.8-23.9,1.3c-15.1,1.1-30.2,2.2-45.3,3.3c-8.1,0.6-16.1,1-24.2,1.9
		c-15,1.7-30.1,3.4-45.1,5c-3.3,0.4-6.5,0.7-9.7,1.1c-6.5,0.7-12.9,1.9-19.4,2.8c-0.4,0.1-0.8,0.1-1.2,0.2c-0.8,0.3-1.4,0.8-2,1.5
		c-0.9,1.1-1.3,2.7-1.3,4.2c0,1.6,0.5,3.1,1.3,4.3c0.8,1,2.1,1.9,3.2,1.8c7.8-1.1,15.6-2.4,23.4-3.3c7.3-0.8,14.5-1.6,21.8-2.4
		c7.9-0.9,15.8-1.8,23.7-2.6c3.2-0.4,6.4-0.8,9.6-1.1c12.3-0.9,24.7-1.8,37-2.7c7.7-0.6,15.4-1.1,23.1-1.7c3.2-0.2,6.4-0.5,9.5-0.7
		c12.2-0.6,24.5-1.2,36.7-1.8c7.4-0.4,14.8-0.7,22.2-1.1c2.5-0.1,5-0.3,7.5-0.4c13.2-0.4,26.4-0.8,39.6-1.2
		c7.4-0.2,14.8-0.4,22.1-0.7c2.6-0.1,5.3-0.2,7.9-0.2c13.6-0.2,27.2-0.4,40.9-0.5c8.5-0.1,17-0.2,25.5-0.2c14.5,0,28.9,0.1,43.4,0.1
		c2.8,0,5.7,0.2,8.6,0.3c8,0.3,16,0.6,24,0.9c6,0.2,12,0.5,18,0.7c4.3,0.2,8.5,0.6,12.7,0.9c12.5,0.9,25,1.8,37.5,2.8
		c3.2,0.3,6.3,0.6,9.5,0.9c3.4,0.3,6.8,0.6,10.2,1.1c0.5,0.1,1,0.2,1.6,0.4c1.3,0.4,2.6,0.3,3.8-0.6c1.1-0.9,1.9-2.3,2.3-3.9
		c0.7-3.4-0.9-7-3.5-8c-2.3-0.8-4.6-1.1-7-1.5c-1.6-0.2-3.2-0.4-4.8-0.6c-3.1-0.4-6.2-0.6-9.3-0.9
		C674.4,328.3,668.6,327.9,662.8,327.5z"/>
</g>
<rect x="199" y="364.9" class="st4" width="525" height="65"/>
<text transform="matrix(1 0 0 1 265.231 416.0089)" class="st2 st5 st6 st7">K I O S C O </text>
</svg>
