<?xml version="1.0" encoding="utf-8"?>
<!-- Generator: Adobe Illustrator 24.1.1, SVG Export Plug-In . SVG Version: 6.00 Build 0)  -->
<svg version="1.1" id="Capa_1" xmlns="http://www.w3.org/2000/svg" xmlns:xlink="http://www.w3.org/1999/xlink" x="0px" y="0px"
	 viewBox="0 0 120 120" style="enable-background:new 0 0 120 120;" xml:space="preserve">
<style type="text/css">
	.st0{fill:#200F21;}
	.st1{fill:#ECC405;}
	.st2{fill:none;}
</style>
<g>
	<g>
		<g>
			<g>
				<path class="st0" d="M10,21.4l46.5-3.6c1.6-0.1,3.2,1.5,3.4,3.5l1.6,17c0.2,2.1-1.1,3.9-2.7,4l-22.2,1.7c-1.7,0.1-2.9,2-2.7,4
					c0.2,2.2,1.7,3.8,3.4,3.6l13.3-1c1.6-0.1,3.2,1.5,3.4,3.5l1.5,16.7c0.2,2.1-1.1,3.9-2.7,4l-13.3,1c-1.7,0.1-2.9,2-2.7,4l0,0.5
					c0.2,2.1,1.7,3.6,3.4,3.5l22.2-1.7c1.6-0.1,3.2,1.6,3.4,3.5l1.6,17c0.2,2.2-1.1,4-2.7,4.1L18.2,110c-1.7,0.1-3.2-1.5-3.4-3.6
					l-7.5-81C7.2,23.3,8.3,21.5,10,21.4z"/>
			</g>
			<g>
				<g>
					<path class="st1" d="M15.2,21.4l46.5-3.6c1.6-0.1,3.2,1.5,3.4,3.5l1.6,17c0.2,2.1-1.1,3.9-2.7,4l-22.2,1.7
						c-1.7,0.1-2.9,2-2.7,4c0.2,2.2,1.7,3.8,3.4,3.6l13.3-1c1.6-0.1,3.2,1.5,3.4,3.5l1.5,16.7c0.2,2.1-1.1,3.9-2.7,4l-13.3,1
						c-1.7,0.1-2.9,2-2.7,4l0,0.5c0.2,2.1,1.7,3.6,3.4,3.5l22.2-1.7c1.6-0.1,3.2,1.6,3.4,3.5l1.6,17c0.2,2.2-1.1,4-2.7,4.1L23.4,110
						c-1.7,0.1-3.2-1.5-3.4-3.6l-7.5-81C12.4,23.3,13.5,21.5,15.2,21.4z"/>
				</g>
			</g>
			<g>
				<g>
					<path class="st1" d="M82.8,78.9l18.1,0.5c2.5,0.1,4.3,2.5,4.2,5.3l-0.7,16.6c-0.1,2.8-2.1,5.1-4.7,5.1l-18.1-0.5
						c-2.5-0.1-4.3-2.5-4.2-5.3L78.1,84C78.2,81.1,80.3,78.9,82.8,78.9z M84.9,14.6l19.3,0.5c2.5,0.1,4.5,2.6,4.4,5.6l-3.5,47.6
						c-0.1,2.8-2.1,5-4.7,5l-16.6-0.4c-2.5-0.1-4.3-2.4-4.2-5.2L80.1,20C80.2,16.9,82.4,14.5,84.9,14.6z"/>
				</g>
			</g>
			<g>
				<g>
					<path class="st0" d="M84.8,79.5l16.7,0.5c2.3,0.1,4,2.4,3.9,5.2l-0.6,16.3c-0.1,2.8-2,5.1-4.3,5L83.8,106
						c-2.3-0.1-4-2.4-3.9-5.2l0.6-16.3C80.7,81.7,82.5,79.4,84.8,79.5z M86.8,16.5l17.7,0.5c2.3,0.1,4.1,2.6,4,5.5L105.4,69
						c-0.1,2.8-2,4.9-4.3,4.8l-15.3-0.4c-2.3-0.1-4-2.3-3.9-5.1l0.5-46.7C82.5,18.7,84.5,16.4,86.8,16.5z"/>
				</g>
			</g>
		</g>
	</g>
</g>
<rect x="-664" y="-161.9" class="st2" width="525" height="65"/>
</svg>
